<?xml version="1.0" encoding="UTF-8" standalone="no"?>
<!-- Created with Inkscape (http://www.inkscape.org/) -->
<!-- Source: https://commons.wikimedia.org/wiki/File:Flag_map_of_Thailand.svg -->
<!-- Author: Fry1989/Wikimedia Commons -->
<svg
   width="325.99771"
   height="601.19824"
   id="svg3920"
   sodipodi:version="0.32"
   inkscape:version="1.1.1 (3bf5ae0d25, 2021-09-20)"
   version="1.0"
   sodipodi:docname="20221103041818!Flag_map_of_Thailand.svg"
   inkscape:output_extension="org.inkscape.output.svg.inkscape"
   inkscape:export-filename="/Users/Soda/Desktop/Malayo-Polynesian.png"
   inkscape:export-xdpi="2139.2949"
   inkscape:export-ydpi="2139.2949"
   style="display:inline"
   xmlns:inkscape="http://www.inkscape.org/namespaces/inkscape"
   xmlns:sodipodi="http://sodipodi.sourceforge.net/DTD/sodipodi-0.dtd"
   xmlns="http://www.w3.org/2000/svg"
   xmlns:svg="http://www.w3.org/2000/svg"
   xmlns:rdf="http://www.w3.org/1999/02/22-rdf-syntax-ns#"
   xmlns:cc="http://creativecommons.org/ns#"
   xmlns:dc="http://purl.org/dc/elements/1.1/">
  <defs
     id="defs3922">
    <inkscape:perspective
       sodipodi:type="inkscape:persp3d"
       inkscape:vp_x="0 : 25.812323 : 1"
       inkscape:vp_y="0 : 1000 : 0"
       inkscape:vp_z="729.11426 : 25.812323 : 1"
       inkscape:persp3d-origin="364.55713 : -61.074587 : 1"
       id="perspective733" />
    <style
       id="style6"
       type="text/css">

    .str3 {stroke:#595959;stroke-width:8;stroke-linejoin:round}
    .str1 {stroke:#000000;stroke-width:14}
    .str2 {stroke:#000000;stroke-width:14}
    .str0 {stroke:#000000;stroke-width:14;stroke-linejoin:round}
    .str7 {stroke:#990099;stroke-width:14}
    .str5 {stroke:#99FF99;stroke-width:14}
    .str6 {stroke:#000000;stroke-width:21;stroke-linejoin:round}
    .str4 {stroke:#3300CC;stroke-width:21;stroke-linejoin:round}
    .str8 {stroke:#FF9999;stroke-width:21;stroke-linejoin:round}
    .fil7 {fill:none}
    .fil8 {fill:#00FF00}
    .fil0 {fill:#336699}
    .fil3 {fill:#990000}
    .fil9 {fill:#9966FF}
    .fil5 {fill:#99FFFF}
    .fil4 {fill:#CC3300}
    .fil10 {fill:#FF6600}
    .fil1 {fill:#FF9933}
    .fil2 {fill:#FFFF99}
    .fil6 {fill:#FFFFFF}

  </style>
    <linearGradient
       id="linearGradient7387">
      <stop
         id="stop7389"
         offset="0"
         style="stop-color: rgb(212, 0, 0); stop-opacity: 1;" />
      <stop
         style="stop-color: rgb(0, 128, 0); stop-opacity: 1;"
         offset="1"
         id="stop8365" />
      <stop
         id="stop7391"
         offset="1"
         style="stop-color: rgb(218, 240, 253); stop-opacity: 0;" />
    </linearGradient>
    <linearGradient
       id="linearGradient9336">
      <stop
         id="stop9338"
         offset="0"
         style="stop-color: rgb(0, 128, 0); stop-opacity: 1;" />
      <stop
         id="stop9340"
         offset="1"
         style="stop-color: rgb(0, 128, 0); stop-opacity: 1;" />
    </linearGradient>
    <linearGradient
       id="linearGradient10325">
      <stop
         id="stop10327"
         offset="0"
         style="stop-color: rgb(212, 0, 0); stop-opacity: 1;" />
      <stop
         id="stop10329"
         offset="1"
         style="stop-color: rgb(0, 128, 0); stop-opacity: 1;" />
    </linearGradient>
    <marker
       id="ArrowStart"
       viewBox="0 0 10 10"
       orient="auto"
       markerHeight="3"
       markerWidth="4"
       refY="5"
       refX="10"
       markerUnits="strokeWidth">
      <path
         id="path10"
         d="M 10,0 0,5 10,10 Z" />
    </marker>
    <marker
       id="ArrowEnd"
       viewBox="0 0 10 10"
       orient="auto"
       markerHeight="3"
       markerWidth="4"
       refY="5"
       refX="0"
       markerUnits="strokeWidth">
      <path
         id="path7"
         d="M 0,0 10,5 0,10 Z" />
    </marker>
    <inkscape:perspective
       id="perspective5439"
       inkscape:persp3d-origin="0.5 : -234.51506 : 1"
       inkscape:vp_z="1 : -234.34839 : 1"
       inkscape:vp_y="0 : 1000 : 0"
       inkscape:vp_x="0 : -234.34839 : 1"
       sodipodi:type="inkscape:persp3d" />
    <inkscape:perspective
       id="perspective2873"
       inkscape:persp3d-origin="0.5 : -234.51506 : 1"
       inkscape:vp_z="1 : -234.34839 : 1"
       inkscape:vp_y="0 : 1000 : 0"
       inkscape:vp_x="0 : -234.34839 : 1"
       sodipodi:type="inkscape:persp3d" />
    <inkscape:perspective
       id="perspective2913"
       inkscape:persp3d-origin="0.5 : -234.51506 : 1"
       inkscape:vp_z="1 : -234.34839 : 1"
       inkscape:vp_y="0 : 1000 : 0"
       inkscape:vp_x="0 : -234.34839 : 1"
       sodipodi:type="inkscape:persp3d" />
    <inkscape:perspective
       id="perspective2960"
       inkscape:persp3d-origin="0.5 : -234.51506 : 1"
       inkscape:vp_z="1 : -234.34839 : 1"
       inkscape:vp_y="0 : 1000 : 0"
       inkscape:vp_x="0 : -234.34839 : 1"
       sodipodi:type="inkscape:persp3d" />
    <inkscape:perspective
       id="perspective2995"
       inkscape:persp3d-origin="0.5 : -234.51506 : 1"
       inkscape:vp_z="1 : -234.34839 : 1"
       inkscape:vp_y="0 : 1000 : 0"
       inkscape:vp_x="0 : -234.34839 : 1"
       sodipodi:type="inkscape:persp3d" />
    <inkscape:perspective
       id="perspective4046"
       inkscape:persp3d-origin="0.5 : -234.51506 : 1"
       inkscape:vp_z="1 : -234.34839 : 1"
       inkscape:vp_y="0 : 1000 : 0"
       inkscape:vp_x="0 : -234.34839 : 1"
       sodipodi:type="inkscape:persp3d" />
    <inkscape:perspective
       id="perspective4285"
       inkscape:persp3d-origin="0.5 : -234.51506 : 1"
       inkscape:vp_z="1 : -234.34839 : 1"
       inkscape:vp_y="0 : 1000 : 0"
       inkscape:vp_x="0 : -234.34839 : 1"
       sodipodi:type="inkscape:persp3d" />
    <inkscape:perspective
       id="perspective4492"
       inkscape:persp3d-origin="0.5 : -234.51506 : 1"
       inkscape:vp_z="1 : -234.34839 : 1"
       inkscape:vp_y="0 : 1000 : 0"
       inkscape:vp_x="0 : -234.34839 : 1"
       sodipodi:type="inkscape:persp3d" />
    <inkscape:perspective
       id="perspective4537"
       inkscape:persp3d-origin="0.5 : -234.51506 : 1"
       inkscape:vp_z="1 : -234.34839 : 1"
       inkscape:vp_y="0 : 1000 : 0"
       inkscape:vp_x="0 : -234.34839 : 1"
       sodipodi:type="inkscape:persp3d" />
    <inkscape:perspective
       id="perspective5044"
       inkscape:persp3d-origin="0.5 : -234.51506 : 1"
       inkscape:vp_z="1 : -234.34839 : 1"
       inkscape:vp_y="0 : 1000 : 0"
       inkscape:vp_x="0 : -234.34839 : 1"
       sodipodi:type="inkscape:persp3d" />
    <inkscape:perspective
       id="perspective3252"
       inkscape:persp3d-origin="0.5 : -234.51506 : 1"
       inkscape:vp_z="1 : -234.34839 : 1"
       inkscape:vp_y="0 : 1000 : 0"
       inkscape:vp_x="0 : -234.34839 : 1"
       sodipodi:type="inkscape:persp3d" />
    <inkscape:perspective
       id="perspective3211"
       inkscape:persp3d-origin="0.5 : -234.51506 : 1"
       inkscape:vp_z="1 : -234.34839 : 1"
       inkscape:vp_y="0 : 1000 : 0"
       inkscape:vp_x="0 : -234.34839 : 1"
       sodipodi:type="inkscape:persp3d" />
    <inkscape:perspective
       id="perspective3246"
       inkscape:persp3d-origin="0.5 : -234.51506 : 1"
       inkscape:vp_z="1 : -234.34839 : 1"
       inkscape:vp_y="0 : 1000 : 0"
       inkscape:vp_x="0 : -234.34839 : 1"
       sodipodi:type="inkscape:persp3d" />
    <inkscape:perspective
       id="perspective3269"
       inkscape:persp3d-origin="0.5 : -234.51506 : 1"
       inkscape:vp_z="1 : -234.34839 : 1"
       inkscape:vp_y="0 : 1000 : 0"
       inkscape:vp_x="0 : -234.34839 : 1"
       sodipodi:type="inkscape:persp3d" />
    <inkscape:perspective
       id="perspective4658"
       inkscape:persp3d-origin="0.5 : -234.51506 : 1"
       inkscape:vp_z="1 : -234.34839 : 1"
       inkscape:vp_y="0 : 1000 : 0"
       inkscape:vp_x="0 : -234.34839 : 1"
       sodipodi:type="inkscape:persp3d" />
    <inkscape:perspective
       id="perspective5095"
       inkscape:persp3d-origin="0.5 : -234.51506 : 1"
       inkscape:vp_z="1 : -234.34839 : 1"
       inkscape:vp_y="0 : 1000 : 0"
       inkscape:vp_x="0 : -234.34839 : 1"
       sodipodi:type="inkscape:persp3d" />
    <inkscape:perspective
       id="perspective5130"
       inkscape:persp3d-origin="0.5 : -234.51506 : 1"
       inkscape:vp_z="1 : -234.34839 : 1"
       inkscape:vp_y="0 : 1000 : 0"
       inkscape:vp_x="0 : -234.34839 : 1"
       sodipodi:type="inkscape:persp3d" />
    <inkscape:perspective
       id="perspective5130-0"
       inkscape:persp3d-origin="0.5 : -234.51506 : 1"
       inkscape:vp_z="1 : -234.34839 : 1"
       inkscape:vp_y="0 : 1000 : 0"
       inkscape:vp_x="0 : -234.34839 : 1"
       sodipodi:type="inkscape:persp3d" />
    <inkscape:perspective
       id="perspective5130-4"
       inkscape:persp3d-origin="0.5 : -234.51506 : 1"
       inkscape:vp_z="1 : -234.34839 : 1"
       inkscape:vp_y="0 : 1000 : 0"
       inkscape:vp_x="0 : -234.34839 : 1"
       sodipodi:type="inkscape:persp3d" />
    <inkscape:perspective
       id="perspective5130-9"
       inkscape:persp3d-origin="0.5 : -234.51506 : 1"
       inkscape:vp_z="1 : -234.34839 : 1"
       inkscape:vp_y="0 : 1000 : 0"
       inkscape:vp_x="0 : -234.34839 : 1"
       sodipodi:type="inkscape:persp3d" />
    <inkscape:perspective
       id="perspective5130-5"
       inkscape:persp3d-origin="0.5 : -234.51506 : 1"
       inkscape:vp_z="1 : -234.34839 : 1"
       inkscape:vp_y="0 : 1000 : 0"
       inkscape:vp_x="0 : -234.34839 : 1"
       sodipodi:type="inkscape:persp3d" />
    <inkscape:perspective
       id="perspective5130-7"
       inkscape:persp3d-origin="0.5 : -234.51506 : 1"
       inkscape:vp_z="1 : -234.34839 : 1"
       inkscape:vp_y="0 : 1000 : 0"
       inkscape:vp_x="0 : -234.34839 : 1"
       sodipodi:type="inkscape:persp3d" />
    <inkscape:perspective
       id="perspective5130-79"
       inkscape:persp3d-origin="0.5 : -234.51506 : 1"
       inkscape:vp_z="1 : -234.34839 : 1"
       inkscape:vp_y="0 : 1000 : 0"
       inkscape:vp_x="0 : -234.34839 : 1"
       sodipodi:type="inkscape:persp3d" />
    <inkscape:perspective
       id="perspective5219"
       inkscape:persp3d-origin="0.5 : -234.51506 : 1"
       inkscape:vp_z="1 : -234.34839 : 1"
       inkscape:vp_y="0 : 1000 : 0"
       inkscape:vp_x="0 : -234.34839 : 1"
       sodipodi:type="inkscape:persp3d" />
    <inkscape:perspective
       id="perspective5219-9"
       inkscape:persp3d-origin="0.5 : -234.51506 : 1"
       inkscape:vp_z="1 : -234.34839 : 1"
       inkscape:vp_y="0 : 1000 : 0"
       inkscape:vp_x="0 : -234.34839 : 1"
       sodipodi:type="inkscape:persp3d" />
    <inkscape:perspective
       id="perspective6063"
       inkscape:persp3d-origin="0.5 : -234.51506 : 1"
       inkscape:vp_z="1 : -234.34839 : 1"
       inkscape:vp_y="0 : 1000 : 0"
       inkscape:vp_x="0 : -234.34839 : 1"
       sodipodi:type="inkscape:persp3d" />
    <inkscape:perspective
       id="perspective6077"
       inkscape:persp3d-origin="0.5 : -234.51506 : 1"
       inkscape:vp_z="1 : -234.34839 : 1"
       inkscape:vp_y="0 : 1000 : 0"
       inkscape:vp_x="0 : -234.34839 : 1"
       sodipodi:type="inkscape:persp3d" />
    <inkscape:perspective
       id="perspective6099"
       inkscape:persp3d-origin="0.5 : -234.51506 : 1"
       inkscape:vp_z="1 : -234.34839 : 1"
       inkscape:vp_y="0 : 1000 : 0"
       inkscape:vp_x="0 : -234.34839 : 1"
       sodipodi:type="inkscape:persp3d" />
    <inkscape:perspective
       id="perspective6099-9"
       inkscape:persp3d-origin="0.5 : -234.51506 : 1"
       inkscape:vp_z="1 : -234.34839 : 1"
       inkscape:vp_y="0 : 1000 : 0"
       inkscape:vp_x="0 : -234.34839 : 1"
       sodipodi:type="inkscape:persp3d" />
    <inkscape:perspective
       id="perspective6099-6"
       inkscape:persp3d-origin="0.5 : -234.51506 : 1"
       inkscape:vp_z="1 : -234.34839 : 1"
       inkscape:vp_y="0 : 1000 : 0"
       inkscape:vp_x="0 : -234.34839 : 1"
       sodipodi:type="inkscape:persp3d" />
    <inkscape:perspective
       id="perspective6139"
       inkscape:persp3d-origin="0.5 : -234.51506 : 1"
       inkscape:vp_z="1 : -234.34839 : 1"
       inkscape:vp_y="0 : 1000 : 0"
       inkscape:vp_x="0 : -234.34839 : 1"
       sodipodi:type="inkscape:persp3d" />
    <inkscape:perspective
       id="perspective6161"
       inkscape:persp3d-origin="0.5 : -234.51506 : 1"
       inkscape:vp_z="1 : -234.34839 : 1"
       inkscape:vp_y="0 : 1000 : 0"
       inkscape:vp_x="0 : -234.34839 : 1"
       sodipodi:type="inkscape:persp3d" />
    <inkscape:perspective
       id="perspective6161-2"
       inkscape:persp3d-origin="0.5 : -234.51506 : 1"
       inkscape:vp_z="1 : -234.34839 : 1"
       inkscape:vp_y="0 : 1000 : 0"
       inkscape:vp_x="0 : -234.34839 : 1"
       sodipodi:type="inkscape:persp3d" />
    <inkscape:perspective
       id="perspective6161-0"
       inkscape:persp3d-origin="0.5 : -234.51506 : 1"
       inkscape:vp_z="1 : -234.34839 : 1"
       inkscape:vp_y="0 : 1000 : 0"
       inkscape:vp_x="0 : -234.34839 : 1"
       sodipodi:type="inkscape:persp3d" />
    <inkscape:perspective
       id="perspective6161-9"
       inkscape:persp3d-origin="0.5 : -234.51506 : 1"
       inkscape:vp_z="1 : -234.34839 : 1"
       inkscape:vp_y="0 : 1000 : 0"
       inkscape:vp_x="0 : -234.34839 : 1"
       sodipodi:type="inkscape:persp3d" />
    <inkscape:perspective
       id="perspective6161-91"
       inkscape:persp3d-origin="0.5 : -234.51506 : 1"
       inkscape:vp_z="1 : -234.34839 : 1"
       inkscape:vp_y="0 : 1000 : 0"
       inkscape:vp_x="0 : -234.34839 : 1"
       sodipodi:type="inkscape:persp3d" />
    <inkscape:perspective
       id="perspective6161-3"
       inkscape:persp3d-origin="0.5 : -234.51506 : 1"
       inkscape:vp_z="1 : -234.34839 : 1"
       inkscape:vp_y="0 : 1000 : 0"
       inkscape:vp_x="0 : -234.34839 : 1"
       sodipodi:type="inkscape:persp3d" />
    <inkscape:perspective
       id="perspective6228"
       inkscape:persp3d-origin="0.5 : -234.51506 : 1"
       inkscape:vp_z="1 : -234.34839 : 1"
       inkscape:vp_y="0 : 1000 : 0"
       inkscape:vp_x="0 : -234.34839 : 1"
       sodipodi:type="inkscape:persp3d" />
    <inkscape:perspective
       id="perspective6492"
       inkscape:persp3d-origin="0.5 : -234.51506 : 1"
       inkscape:vp_z="1 : -234.34839 : 1"
       inkscape:vp_y="0 : 1000 : 0"
       inkscape:vp_x="0 : -234.34839 : 1"
       sodipodi:type="inkscape:persp3d" />
    <inkscape:perspective
       id="perspective7675"
       inkscape:persp3d-origin="0.5 : -234.51506 : 1"
       inkscape:vp_z="1 : -234.34839 : 1"
       inkscape:vp_y="0 : 1000 : 0"
       inkscape:vp_x="0 : -234.34839 : 1"
       sodipodi:type="inkscape:persp3d" />
    <inkscape:perspective
       id="perspective7788"
       inkscape:persp3d-origin="0.5 : -234.51506 : 1"
       inkscape:vp_z="1 : -234.34839 : 1"
       inkscape:vp_y="0 : 1000 : 0"
       inkscape:vp_x="0 : -234.34839 : 1"
       sodipodi:type="inkscape:persp3d" />
    <inkscape:perspective
       id="perspective8520"
       inkscape:persp3d-origin="0.5 : -234.51506 : 1"
       inkscape:vp_z="1 : -234.34839 : 1"
       inkscape:vp_y="0 : 1000 : 0"
       inkscape:vp_x="0 : -234.34839 : 1"
       sodipodi:type="inkscape:persp3d" />
    <inkscape:perspective
       id="perspective8534"
       inkscape:persp3d-origin="0.5 : -234.51506 : 1"
       inkscape:vp_z="1 : -234.34839 : 1"
       inkscape:vp_y="0 : 1000 : 0"
       inkscape:vp_x="0 : -234.34839 : 1"
       sodipodi:type="inkscape:persp3d" />
    <inkscape:perspective
       id="perspective8534-1"
       inkscape:persp3d-origin="0.5 : -234.51506 : 1"
       inkscape:vp_z="1 : -234.34839 : 1"
       inkscape:vp_y="0 : 1000 : 0"
       inkscape:vp_x="0 : -234.34839 : 1"
       sodipodi:type="inkscape:persp3d" />
    <inkscape:perspective
       id="perspective8534-7"
       inkscape:persp3d-origin="0.5 : -234.51506 : 1"
       inkscape:vp_z="1 : -234.34839 : 1"
       inkscape:vp_y="0 : 1000 : 0"
       inkscape:vp_x="0 : -234.34839 : 1"
       sodipodi:type="inkscape:persp3d" />
    <inkscape:perspective
       id="perspective8534-3"
       inkscape:persp3d-origin="0.5 : -234.51506 : 1"
       inkscape:vp_z="1 : -234.34839 : 1"
       inkscape:vp_y="0 : 1000 : 0"
       inkscape:vp_x="0 : -234.34839 : 1"
       sodipodi:type="inkscape:persp3d" />
    <inkscape:perspective
       id="perspective8534-8"
       inkscape:persp3d-origin="0.5 : -234.51506 : 1"
       inkscape:vp_z="1 : -234.34839 : 1"
       inkscape:vp_y="0 : 1000 : 0"
       inkscape:vp_x="0 : -234.34839 : 1"
       sodipodi:type="inkscape:persp3d" />
    <inkscape:perspective
       id="perspective9051"
       inkscape:persp3d-origin="0.5 : -234.51506 : 1"
       inkscape:vp_z="1 : -234.34839 : 1"
       inkscape:vp_y="0 : 1000 : 0"
       inkscape:vp_x="0 : -234.34839 : 1"
       sodipodi:type="inkscape:persp3d" />
    <inkscape:perspective
       id="perspective9177"
       inkscape:persp3d-origin="0.5 : -234.51506 : 1"
       inkscape:vp_z="1 : -234.34839 : 1"
       inkscape:vp_y="0 : 1000 : 0"
       inkscape:vp_x="0 : -234.34839 : 1"
       sodipodi:type="inkscape:persp3d" />
    <inkscape:perspective
       id="perspective9191"
       inkscape:persp3d-origin="0.5 : -234.51506 : 1"
       inkscape:vp_z="1 : -234.34839 : 1"
       inkscape:vp_y="0 : 1000 : 0"
       inkscape:vp_x="0 : -234.34839 : 1"
       sodipodi:type="inkscape:persp3d" />
    <inkscape:perspective
       id="perspective9191-0"
       inkscape:persp3d-origin="0.5 : -234.51506 : 1"
       inkscape:vp_z="1 : -234.34839 : 1"
       inkscape:vp_y="0 : 1000 : 0"
       inkscape:vp_x="0 : -234.34839 : 1"
       sodipodi:type="inkscape:persp3d" />
    <inkscape:perspective
       id="perspective9191-2"
       inkscape:persp3d-origin="0.5 : -234.51506 : 1"
       inkscape:vp_z="1 : -234.34839 : 1"
       inkscape:vp_y="0 : 1000 : 0"
       inkscape:vp_x="0 : -234.34839 : 1"
       sodipodi:type="inkscape:persp3d" />
    <inkscape:perspective
       id="perspective9710"
       inkscape:persp3d-origin="0.5 : -234.51506 : 1"
       inkscape:vp_z="1 : -234.34839 : 1"
       inkscape:vp_y="0 : 1000 : 0"
       inkscape:vp_x="0 : -234.34839 : 1"
       sodipodi:type="inkscape:persp3d" />
    <inkscape:perspective
       id="perspective10291"
       inkscape:persp3d-origin="0.5 : -234.51506 : 1"
       inkscape:vp_z="1 : -234.34839 : 1"
       inkscape:vp_y="0 : 1000 : 0"
       inkscape:vp_x="0 : -234.34839 : 1"
       sodipodi:type="inkscape:persp3d" />
    <inkscape:perspective
       id="perspective10305"
       inkscape:persp3d-origin="0.5 : -234.51506 : 1"
       inkscape:vp_z="1 : -234.34839 : 1"
       inkscape:vp_y="0 : 1000 : 0"
       inkscape:vp_x="0 : -234.34839 : 1"
       sodipodi:type="inkscape:persp3d" />
    <inkscape:perspective
       id="perspective10305-1"
       inkscape:persp3d-origin="0.5 : -234.51506 : 1"
       inkscape:vp_z="1 : -234.34839 : 1"
       inkscape:vp_y="0 : 1000 : 0"
       inkscape:vp_x="0 : -234.34839 : 1"
       sodipodi:type="inkscape:persp3d" />
    <inkscape:perspective
       id="perspective10571"
       inkscape:persp3d-origin="0.5 : -234.51506 : 1"
       inkscape:vp_z="1 : -234.34839 : 1"
       inkscape:vp_y="0 : 1000 : 0"
       inkscape:vp_x="0 : -234.34839 : 1"
       sodipodi:type="inkscape:persp3d" />
    <inkscape:perspective
       id="perspective10585"
       inkscape:persp3d-origin="0.5 : -234.51506 : 1"
       inkscape:vp_z="1 : -234.34839 : 1"
       inkscape:vp_y="0 : 1000 : 0"
       inkscape:vp_x="0 : -234.34839 : 1"
       sodipodi:type="inkscape:persp3d" />
    <inkscape:perspective
       id="perspective10585-8"
       inkscape:persp3d-origin="0.5 : -234.51506 : 1"
       inkscape:vp_z="1 : -234.34839 : 1"
       inkscape:vp_y="0 : 1000 : 0"
       inkscape:vp_x="0 : -234.34839 : 1"
       sodipodi:type="inkscape:persp3d" />
    <inkscape:perspective
       id="perspective10934"
       inkscape:persp3d-origin="0.5 : -234.51506 : 1"
       inkscape:vp_z="1 : -234.34839 : 1"
       inkscape:vp_y="0 : 1000 : 0"
       inkscape:vp_x="0 : -234.34839 : 1"
       sodipodi:type="inkscape:persp3d" />
    <inkscape:perspective
       id="perspective10948"
       inkscape:persp3d-origin="0.5 : -234.51506 : 1"
       inkscape:vp_z="1 : -234.34839 : 1"
       inkscape:vp_y="0 : 1000 : 0"
       inkscape:vp_x="0 : -234.34839 : 1"
       sodipodi:type="inkscape:persp3d" />
    <clipPath
       clipPathUnits="userSpaceOnUse"
       id="clipPath1391">
      <path
         style="display:inline;fill:#ffff00;fill-opacity:1;stroke:none;stroke-width:1;stroke-opacity:1"
         d="M 101.75343,7.06202e-6 98.981039,0.86637769 h -0.04325 l -1.082963,1.12628181 -0.04325,0.043249 -1.689422,2.8590231 -0.04325,0.043249 h -0.04325 -3.162252 V 4.8949318 L 90.01438,5.8046209 H 89.97113 L 88.23839,5.5013912 85.379367,4.6350206 h -0.04325 l -2.988979,-0.5198224 1.646104,3.0322972 1.732741,2.8590226 v 0.04325 0.04325 l -1.1696,2.859023 v 0.04325 l -2.295882,1.732741 h -0.04325 l -2.902342,0.563141 -3.162253,0.866371 h -0.04325 l -2.85902,-1.992654 h -0.04325 L 70.13152,13.86166 h -0.04325 l -0.563141,0.30323 -2.815704,1.949333 -0.866371,2.902342 -0.30323,0.866371 -0.30323,3.162252 0.30323,2.859024 v 0.04325 l -0.04325,0.04325 -3.162253,2.295882 -1.126282,1.1696 -0.04325,0.04325 -0.08664,-0.04325 -2.815704,-2.295882 -2.859024,1.992653 h -0.04325 -2.815704 -0.04325 l -3.162252,2.035971 -2.859023,1.429511 h -0.04325 -0.04325 l -2.859023,-0.86637 h -5.154905 -0.04325 l -2.859023,0.86637 h -0.04325 L 32.53166,30.019333 29.412726,28.286592 h -0.04325 -2.772386 l -0.563141,2.815705 v 0.04325 2.859023 0.04325 H 25.9907 l -3.162253,1.732741 -0.04325,0.04325 -3.118934,1.082963 -0.04325,0.04325 -0.259911,0.519822 0.303229,2.859024 v 0.04325 0.04325 l -2.295882,2.815705 v 2.902341 l -0.86637,3.118934 v 0.04325 l 1.992652,2.859023 v 0.04325 2.295882 0.04325 l -1.126282,2.859023 v 0.04325 h -0.04325 l -2.599112,2.902341 -2.512475,2.815705 2.512475,2.859023 h 0.04325 l 0.563141,3.205571 0.30323,2.859023 v 0.04325 l 0.563141,3.162253 v 0.04325 l -1.429512,3.162253 -0.04325,0.04325 h -0.04325 l -2.859023,0.30323 v -0.04325 l -2.8590233,1.47283 -3.1622528,1.732741 H 5.7612927 L 2.8589511,81.697509 H 2.8157019 L -2.6656705e-6,78.838486 0.6497753,81.047731 H 0.60652608 L 2.0793561,83.906755 3.205638,87.112326 4.6351495,89.92803 7.450854,88.801749 h 0.043249 l 2.902342,0.86637 h 0.04325 v 0.04325 l -0.5631411,2.902342 1.9926531,2.815705 v 0.04325 l 1.1696,3.162253 1.126282,2.902341 h 0.04325 v 2.90234 l -0.04325,0.0433 -1.689423,3.11893 0.563141,1.68943 v 0.0433 l 1.992652,2.29588 1.169601,2.85902 v 0.0433 l 2.555793,3.11893 0.04325,0.0433 3.162253,2.29589 0.563141,0.86637 3.162253,2.29588 H 25.731 v 0.0433 l 1.126282,3.11893 v 0.0433 l 2.599112,2.85902 2.035971,2.85903 2.859023,2.3392 2.035971,2.90234 1.126281,2.85902 0.04325,0.0433 2.555793,1.12628 3.205571,2.29589 v 0.0432 l 1.429512,3.16226 0.30323,2.90234 v 0.0433 l -0.866371,2.85902 0.866371,3.16225 0.86637,2.25257 v 0.0433 l 2.294358,2.8611 v 0.0433 l 1.1696,3.16225 1.1696,2.85902 v 0.0433 l 0.866371,2.81571 v 0.0433 l 2.815704,1.12628 2.815705,-2.59911 1.732741,-3.16226 0.04325,-0.0866 0.04325,0.0866 0.04325,0.0866 2.295882,2.81571 v 0.0433 l -0.563141,2.85902 v 0.0433 3.16225 0.0433 l -1.732741,2.85902 h -0.04325 l -2.295883,3.20557 v 0.0433 l -0.08664,-0.0433 -2.815704,-1.1696 h -0.04325 l -3.118935,2.59912 v 0.0432 h -0.04325 l -2.772386,0.25992 0.519823,1.34287 v 0.0432 l 0.303229,2.85902 0.30323,3.20557 -0.866371,2.90235 -0.86637,2.85902 v 0.0433 l 0.259911,2.85902 v 4.02862 l 0.606459,3.16226 0.259912,2.90234 -0.866371,2.8157 v 0.0866 0.0866 l -0.08664,-0.0433 -2.859023,-1.68942 -2.815705,1.99265 -0.259911,2.8157 -0.04325,0.0866 -0.08664,-0.0433 -0.04325,-0.0433 -2.252564,-0.77973 -3.118934,1.42951 -2.859023,0.86637 h -0.04325 l -0.216592,0.51982 v 2.85902 l 0.563141,3.16226 v 0.0433 3.11893 0.0433 l 1.126281,1.99265 h 0.04325 l 0.259911,3.16226 v 0.0432 l 1.1696,2.85903 1.732741,2.85902 2.859024,2.90234 2.902341,2.85903 3.465483,5.80468 1.429511,3.16225 3.162253,2.59911 2.902342,2.29589 2.859023,2.59911 2.859023,2.29588 h 0.04325 l 3.162253,1.42951 v 0.0433 h 0.04325 l 1.126282,3.16225 v 0.0433 l 1.429511,2.85903 3.162253,2.29588 h 0.04325 v 0.0433 2.85902 0.0433 l 1.992653,3.11893 v 0.0433 4.59177 0.0433 l 0.606459,3.11893 v 0.0433 l 0.866371,2.85902 0.259911,2.90234 v 0.0433 l -0.866371,3.11894 0.30323,1.47283 v 2.85902 0.0433 0.0433 l -2.599112,2.55579 v 0.0433 l -0.86637,2.77239 v 0.0433 l 2.295882,2.85902 v 0.0433 l 0.303229,2.85902 0.563141,3.16226 1.732742,2.85902 2.035971,2.90234 2.555793,2.85902 0.04325,0.0432 3.162253,2.29588 v 0.0433 l -0.259911,3.16226 0.563141,5.76136 1.126281,2.85902 v 0.0433 l 0.60646,2.85903 v 0.0433 l 0.259911,3.11893 2.815705,-0.30323 h 0.129886 l -0.04325,0.0866 -0.866371,2.8157 v 0.0433 l 1.732741,2.85902 v 0.0433 l -0.303229,2.85903 1.47283,2.85902 0.86637,3.20557 v 0.0433 l -1.47283,2.90234 -2.599112,2.90234 h -0.04325 l -2.815704,0.86637 v 2.81571 0.0433 l -2.339201,3.16225 h 0.04325 l -0.606459,3.16225 v 0.0433 l -2.599112,2.85903 -0.866371,2.29588 -1.429511,2.90234 -2.035971,2.90234 -2.902342,2.90234 -1.429511,1.12628 v 0.0433 l -3.162253,1.3862 v 0.0433 l -0.259911,2.8157 v 0.0433 h -0.04325 l -1.992652,2.90234 h -0.04325 l -2.859023,1.73274 -2.295883,1.42951 -1.992652,3.11894 0.563141,2.90234 0.866371,2.85902 v 0.0433 0.0433 l -0.60646,0.86637 -1.732741,2.85902 h 0.04325 l -0.866371,3.16226 h -0.04325 v 0.0433 0.0433 l -0.259911,1.6461 -0.606459,2.85902 v 0.0433 l -1.126282,3.20557 -1.47283,2.85903 -1.732742,3.16225 v 0.0433 0.21659 0.0433 l -1.386193,2.85902 -2.3392,2.90235 v 0.0432 l -0.259911,3.07562 0.259911,2.94566 v 0.0433 l -1.949334,3.07562 1.689423,2.90234 0.04325,0.0866 h -0.08664 l -2.902342,1.94934 -0.259911,2.85902 v 0.0433 l -1.47283,3.16225 v 0.0433 0.56314 0.0433 l -1.386193,2.85903 -1.212919,2.8157 1.47283,3.16225 v 0.0433 l 1.126282,2.85902 v 0.0433 l -2.859023,2.85903 -2.252564,5.80468 -1.47283,3.16225 v 0.0433 l 0.866371,2.81571 v 0.0433 l -1.47283,3.16225 v 0.0433 2.8157 l 0.86637,2.85903 0.866371,2.94566 0.866371,3.11893 0.86637,2.94566 2.772386,2.20925 h 0.04325 l 2.859024,-0.51983 0.86637,-2.85902 v -0.0433 l -1.47283,-2.8157 -0.04325,-0.0866 h 0.08664 0.08664 l 2.772386,-0.86637 3.205571,-1.12628 2.815705,-0.34655 h 0.04325 l 0.216593,-0.0433 -0.129887,0.12989 -0.04325,0.0432 -0.823052,0.77974 v 0.0432 l 0.866371,2.85902 v 0.0433 l 2.902341,1.08296 h 0.04325 v 0.0433 l 0.86637,2.85903 v 2.94566 l 0.866371,2.8157 v 0.0433 l 2.772386,1.08296 h 0.04325 l 2.815705,-1.99265 0.04325,-0.0433 0.04325,0.0433 1.732741,1.99265 1.992653,2.94566 1.732741,3.11894 v 0.0432 0.0433 l -1.126282,2.90234 v 0.0433 l 0.259911,2.77238 h 3.118935 l 2.859023,-0.25991 h 0.04325 l 2.94566,1.99265 h 0.04325 l 1.126282,2.3392 v 0.0433 l 0.866371,2.81571 v 0.0432 l 1.47283,3.16225 v 0.0432 l -0.346549,2.85902 2.859023,2.5558 h 0.04325 2.772386 0.04325 l 1.082963,-2.77239 v -0.0432 l 0.04325,-0.0866 0.04325,0.0432 0.346548,0.25991 h 0.04325 v 0.0433 l 0.823052,2.94566 2.165927,-2.94566 h 0.04325 l 0.08664,0.0432 -1.126282,3.11894 -1.082963,2.90234 2.209245,2.8157 2.772386,1.47283 h 0.04325 l 1.992653,-0.60646 h 0.04325 l 0.129886,-0.0432 -0.04325,0.12989 -0.04325,0.0433 -1.169601,2.55579 -0.86637,2.81571 v 0.0433 l 0.346548,2.85902 v 0.0432 l 1.992653,2.8157 3.162252,2.59912 2.859023,2.3392 h 0.04325 l 2.859022,2.85902 1.47283,3.20557 0.60646,0.86637 3.07562,1.73274 h 0.0433 v 0.0432 l 1.12628,2.64243 1.6461,-2.68575 v -0.0432 l 0.86637,-2.8157 v -0.0433 l -0.30323,-3.11893 v -0.0432 l 0.60646,-2.29589 v -0.0866 l 0.0866,0.0432 2.85902,0.56314 h 0.0433 l 1.73274,1.73274 v 0.0433 l 0.86637,2.85902 v 0.0432 l 1.42952,1.38619 1.38619,0.56314 h 0.0433 l 3.16225,0.30323 2.90234,1.73274 2.85902,1.16961 2.85903,-1.16961 h 0.0433 l 2.90234,1.16961 1.73274,2.90234 h 0.0432 v 0.0432 l 0.56314,3.16225 3.11893,2.25256 2.81571,-1.42951 0.0433,-0.0433 0.0433,0.0433 2.85902,0.86637 h 0.0433 v 0.0432 l 0.86637,2.85902 0.86637,3.20557 -0.25991,3.16226 -0.30323,2.90234 v 0.0433 h -0.0433 l -2.85902,2.59911 -1.42951,2.85902 v 1.08297 0.0432 l 0.82305,1.38619 0.0433,0.0432 3.11893,1.42951 h 0.0433 l 2.81571,2.55579 2.8157,-2.25256 0.86637,-2.90234 h 0.0433 v -0.0433 l 3.16225,-1.42951 h 0.0433 l 2.85902,-2.29589 h 0.0433 l 2.85903,-0.30322 0.56314,-0.25992 2.90234,-1.47283 h 0.0433 l 3.16225,2.3392 h 0.0433 l 0.86637,2.90235 0.51982,0.82305 3.16226,-0.30323 2.85902,-0.56314 1.99265,-1.99265 1.42951,-2.85903 0.86637,-2.90234 1.1696,-1.47283 2.85903,-2.29588 1.1696,-3.11894 v -3.11893 l -2.85902,-2.07929 -2.94567,-2.59911 -3.07561,-2.81571 -0.0433,-0.0432 -2.90234,-1.68942 -0.0433,-0.0432 -2.25076,-2.85424 -0.60646,-1.21292 -1.73274,-2.85902 -1.99266,-3.20557 -0.86637,-1.73274 -1.68942,-2.81571 -0.0433,-0.0433 -2.8157,-1.42951 -3.20557,-0.51982 v -0.0433 l -2.81571,-1.73274 h -0.0433 l -2.03597,1.73274 v 0.0433 l -3.11893,1.12628 -3.20557,0.25991 h -0.0433 -1.99266 l -2.85902,-0.25991 v -0.0432 l -3.20557,-1.99265 -2.85902,-1.73274 v 0.0433 l -2.94566,-0.86637 h -0.0433 v -0.0432 l -2.25257,-2.94566 -2.07929,-3.11894 -2.20924,-2.77238 -2.25256,2.77238 -0.0433,0.0433 h -0.0433 l -2.85903,-0.60646 -0.0433,-0.0432 -2.59911,-2.85902 -0.86637,-3.20557 v -0.0433 -0.21659 l -2.8157,-1.42951 -0.0433,-0.0432 -2.33976,-2.8593 -1.73274,-3.20557 -1.47283,-2.85903 v -0.0433 l -0.51982,-3.20557 v -2.85902 -0.0432 l 1.99265,-1.99265 h 0.0433 l 3.20557,-0.60646 0.0433,-0.0433 0.0433,0.0866 1.12628,2.85902 0.60646,2.94566 v 0.0433 l -2.03597,2.77238 h 2.81571 0.0433 0.0432 l 2.51248,2.85903 v 0.0433 3.20557 l 0.60646,2.85902 v 2.85902 l 2.8157,1.42952 2.72907,1.60278 -1.60279,-2.98898 -1.73274,-2.85902 -1.21292,-2.85902 -1.12628,-3.20557 v -0.0433 l -1.12628,-5.71805 -0.60646,-3.20557 -0.60646,-3.20557 -0.51982,-2.85903 -0.60646,-2.29588 -0.86637,-3.11893 v -0.0433 l -0.51982,-2.94566 -0.60646,-3.11894 -0.25991,-2.94566 -0.60646,-3.11893 -1.12628,-3.16225 -1.3862,-2.68575 -0.56314,2.64243 v 0.0433 l -0.51982,0.60646 -0.0433,0.0433 h -0.0433 l -2.94566,-1.73274 -0.0433,-0.0433 -1.38619,-2.94566 -2.3392,-2.59912 -1.73274,-2.85902 v -0.0433 l -0.25991,-2.85902 -0.60646,-2.94566 -0.25992,-2.85902 -0.34654,-3.20558 0.34654,-2.85902 -0.34654,-2.85902 -1.732746,-3.16225 v -0.0433 l -0.259911,-2.85903 -2.295882,-3.11893 h -1.386193 l -3.205571,-0.25991 -2.815705,1.94933 v 0.0433 h -0.04325 l -2.815705,-0.25991 -2.555793,2.8157 -0.04325,0.0433 -2.94566,0.34655 -1.126282,0.25991 h -0.04325 l -2.859023,-1.47283 v -0.0433 h -0.04325 l -3.205571,-2.85902 -0.04325,-0.0433 0.04325,-0.0433 2.339201,-2.8157 -0.60646,-3.20557 -1.472968,-2.81606 -0.866371,-2.94566 -1.386193,-3.11893 -0.866371,-2.94566 v -0.0433 l -0.346548,-1.73274 0.866371,-3.11893 -0.259911,-2.94566 v -2.25257 l -0.259912,-3.20557 0.866371,-2.85902 v -0.0433 l 2.815704,-2.5558 -2.815704,-2.55579 -0.866371,-3.20557 -0.04325,-0.0866 h 0.08664 2.815705 l 1.47283,-2.8157 -0.346549,-2.94566 v -0.0433 l 1.472831,-3.11893 1.47283,-2.94567 2.599111,-2.85902 1.386193,-2.85902 1.472831,-3.16225 1.126281,-2.85903 0.346549,-1.73274 -0.346549,-3.20557 0.346549,-2.85902 v -0.0433 h 0.04325 l 2.815704,-1.42951 -0.606459,-2.85903 0.346548,-3.20557 v -0.0433 l 1.732741,-2.8157 0.779734,-2.85902 0.866371,-2.94566 v -0.0433 l 1.732741,-3.11894 1.732741,-2.94566 2.339201,-2.8157 v -0.0433 l 1.126282,-3.16225 v -2.85903 -0.0433 l 1.732741,-2.85902 2.945657,-2.90234 v -0.0433 l 1.12629,-3.07562 v -0.0433 l 0.86637,-0.82305 v -3.20557 l -0.25991,-2.85902 v -0.0433 l 0.25991,-0.30323 v -2.81571 -0.0433 l -1.12629,-3.07561 v -0.0433 -2.94566 l -0.60645,-2.85902 v -0.60646 l 0.25991,-3.11894 0.86637,-3.20557 v -0.0433 l 0.60646,-1.08296 1.12628,-2.94566 0.60646,-2.85902 v -0.0433 l 2.29588,-3.16226 -1.1696,-2.8157 -1.99265,-2.85902 -0.86637,-1.21292 -1.73274,-3.11894 -0.0433,-0.0432 0.0433,-0.0433 1.73274,-1.47283 0.60646,-1.42951 v -0.0433 l 2.85902,-2.59911 h 0.0433 l 2.85902,-0.86637 2.90234,-1.12628 1.3862,-1.47283 0.0433,-0.0433 0.0432,0.0433 2.90235,1.21292 h 0.0433 l 1.94933,-0.34655 h 2.59911 l 2.81571,-0.51982 1.73274,-3.16225 0.25991,-0.82306 v -0.0433 l 0.0433,-0.21659 0.0866,0.21659 v 0.0433 l 1.1696,2.77239 0.0433,0.0433 2.81571,1.1696 2.85902,0.51982 2.07929,0.34655 0.86637,0.25991 2.81571,0.60646 h 0.0433 l 3.11893,-1.21292 h 0.0433 l 0.17327,-0.0866 -0.0866,0.17328 -0.0433,0.0433 -0.56314,1.12628 v 0.0433 l 0.25991,2.8157 v 0.0433 l -2.59912,2.81571 v 0.0433 l 0.60646,3.16225 -0.25991,2.85902 v 0.0433 l -0.60646,0.86637 -0.86637,2.85902 v 0.0433 l 1.73274,2.81571 v 0.0433 0.0433 l -2.3392,2.8157 v 0.0433 l 1.21292,2.90234 0.25991,3.11894 v 0.0433 l -2.8157,2.90234 2.77239,1.94933 2.55579,0.86637 h 0.0433 l 2.8157,-0.86637 2.85903,-0.25991 h 0.0432 l 3.20558,0.25991 1.47283,0.25991 3.11893,0.86637 2.90234,1.21292 h 0.0433 l 2.81571,-1.21292 h 2.85902 l 3.16225,-0.51982 h 0.0433 l 2.81571,-2.07929 h 0.0432 l 2.85903,-0.25991 h 0.0433 l 0.60646,0.25991 2.85902,2.3392 h 0.0433 l 1.47283,2.81571 2.25256,-1.34288 0.0433,-0.0433 0.0433,0.0433 1.73274,2.85902 1.64611,1.3862 h 0.0433 1.08296 0.0433 0.0433 l 1.73274,2.94566 2.8157,2.85902 h 0.0433 l 2.81571,2.25256 -0.34655,-2.72906 -0.0433,-0.12989 0.12989,0.0866 0.0432,0.0433 2.85903,1.55946 1.08296,-1.34287 0.0433,0.0433 0.0866,0.0433 -1.99266,2.85902 -1.1696,3.11894 2.85903,0.86637 1.73274,0.86637 2.85902,0.25991 h 0.0433 l 2.77239,2.77238 0.82305,-2.72906 -0.25991,-1.73274 -0.0433,-0.0866 0.12988,0.0433 3.11894,0.86637 h 0.0433 l 1.73274,3.20557 2.90234,2.59911 h 0.0433 v 0.0433 l 0.51982,1.38619 v 2.90235 0.0432 l 2.07929,3.07562 2.25257,2.94566 0.34654,0.51982 v 0.0433 l 0.86637,2.94566 0.12989,1.12628 v -1.68942 -0.0433 l -0.86637,-2.85902 -2.03597,-2.85902 v -0.0433 l -1.12628,-3.16226 -1.1696,-2.85902 v -0.0433 -1.68942 -0.0433 l -1.73274,-2.85902 -0.86637,-2.90235 v -0.0432 l 0.56314,-3.16226 0.30323,-2.85902 v -0.0433 l 1.73274,-2.90234 0.25991,-0.25991 -2.25257,-2.81571 -0.0432,-0.0433 v -0.30323 l -2.85903,-3.11893 -2.85902,-2.59911 -2.90234,-1.12628 -0.0433,-0.0433 v -0.0433 -2.85903 -0.0432 h 0.0433 l 0.25991,-0.56315 v -2.85902 l -0.56314,-2.90234 -0.60646,-2.85902 -0.56141,-3.16302 v -0.0433 l -0.56314,-1.12628 -2.29588,-2.85902 v -0.0433 l -0.86637,-3.16225 -1.1696,-2.90235 v -2.90234 l 0.30323,-0.86637 -0.30323,-2.85902 -0.30323,-3.20557 v -0.0433 h 0.0433 l 2.90234,-1.1696 h 2.90234 l 2.8157,-0.56314 -0.30323,-2.81571 v -0.0433 l 0.30323,-0.86637 0.0433,-0.0433 2.85903,-1.73274 2.85902,-1.38619 v -0.0433 h 0.0433 l 0.82305,-2.25256 v -0.0433 l 1.16981,-1.68991 0.86637,-2.90234 v -0.0433 l 2.90234,-2.85902 1.68942,-1.42952 v -0.56314 -0.0433 l 1.1696,-2.85902 0.30323,-1.99265 v -0.0433 l 2.90235,-2.3392 0.86637,-0.30323 v 0.0433 l 2.85902,-2.59911 h 0.0433 v -0.0433 l 2.85909,-1.42972 h 0.0433 0.25991 0.0433 l 2.25256,-0.30323 h 0.0433 l 2.85903,-0.86637 h 0.0433 2.85902 l 1.68942,-1.12628 h 0.0433 l 2.85902,-0.30323 h 0.0433 l 2.85903,-1.16961 2.85902,-0.86637 h 0.0433 l 1.42951,0.30323 h 0.0433 l 3.11893,2.29589 h 2.90234 0.0433 v 0.0433 l 2.85903,1.73274 2.85902,-1.47283 h 0.0433 l 1.99265,0.86637 2.85902,-1.1696 2.81571,-0.56314 v -0.2166 -0.0433 l 0.0866,-0.0433 3.16225,-0.25991 h 0.0433 l 2.85902,1.12629 2.90234,0.30323 1.42951,0.30322 2.85903,-0.30322 2.85902,-1.12629 1.42951,-0.86637 0.0433,-0.0433 2.90234,-0.56314 h 2.85903 0.0433 l 2.85902,0.86637 2.3392,0.56314 2.29588,0.30323 0.86637,0.30323 h 0.0433 v 0.0433 3.16226 0.0432 l 1.73274,2.81571 2.81571,0.25991 1.68942,-2.85902 1.99265,-1.94934 0.0433,-0.0433 v -0.0432 l 1.73274,-0.56315 2.90234,-1.42951 v -0.0433 l 2.85903,-0.86637 v 0.0433 l 3.16225,-2.90234 1.99265,-2.8157 v -0.0433 l -0.56314,-5.71805 v -0.0433 -3.16225 -0.0433 l 1.1696,-2.85902 0.56314,-2.85903 v -0.0433 l 1.1696,-2.8157 v -0.0433 l -1.73274,-2.8157 -3.16225,-2.59912 -0.0432,-0.0433 v -0.0432 l 0.30323,-1.99266 v -0.0433 l 2.90234,-3.16225 1.42951,-2.85902 v -0.12989 l -0.17327,0.17328 -0.0433,0.0433 -2.90234,0.25991 h -0.0866 l 0.0433,-0.0866 0.56314,-2.85902 v -0.0433 h 0.0433 l 3.11893,-1.68943 v -2.90234 l 1.1696,-2.85902 0.25992,-2.85902 v -0.0433 l -1.3862,-3.11894 -0.0433,-0.0432 -2.8157,-1.08296 h -0.0433 l -1.68942,-0.30323 h -0.0433 l -3.16142,-1.43041 v -0.0433 h -0.0433 l -1.42958,-3.16232 v -0.0433 l -0.56314,-2.90234 v -0.0433 l 3.11893,-2.25257 -3.07562,-1.08296 -2.90234,-0.56314 -2.85902,-0.30323 h -0.0433 l -3.16225,-1.47283 -2.90234,-1.42951 v -0.0433 l -1.1696,-3.16225 -0.86644,-2.90255 -0.82306,-0.82306 -3.46548,-2.90234 h -0.0433 l -1.99265,-4.02862 -3.46548,-3.16225 v -0.0433 -0.0433 -2.85903 -0.0432 l 0.86637,-3.98531 v -0.0433 l -0.60646,-3.16225 0.30323,-3.72539 -0.86637,-2.90235 v -1.1696 l 0.30323,-2.90234 1.99265,-4.33185 0.30323,-1.99265 0.30323,-3.7254 v -0.0433 l -0.30323,-2.85902 -1.42951,-2.85902 -1.99265,-2.85903 h -0.0433 l -2.25257,-2.03597 -2.90234,-1.42951 -2.90234,-1.73274 -3.16225,-2.29588 v -0.0433 h -0.0433 l -1.73274,-3.16225 h 0.0433 l -2.29589,-2.85903 -0.0433,-0.0433 -2.85902,-2.29588 h -0.0433 l -0.86637,-2.59911 h 0.0433 l -1.73274,-2.85902 v -0.0433 l -1.73274,-1.732742 -0.60646,-0.866371 -1.73274,-2.859023 v -0.04325 l -1.12629,-2.859023 -1.99265,-2.859023 -0.0433,-0.04325 -2.8157,-1.646104 -2.85902,1.689422 h -0.0433 -0.0433 l -2.81571,-2.035971 h -0.0433 -3.11893 -0.0433 l -2.90234,-1.732741 -2.85902,-1.126282 -2.85903,-0.606459 v 0.04325 h -1.47283 v -0.04325 l -2.85902,-0.563141 -2.85902,0.563141 -2.51248,2.859023 1.38619,2.815704 0.0433,0.08664 -0.0866,0.04325 -2.90235,0.86637 -1.94933,3.118935 v 0.04325 h -0.0433 l -2.55579,1.689423 -0.0433,0.04325 -0.82305,1.949334 v 0.04325 2.859028 0.0433 l -1.1696,1.73274 -0.0433,0.0433 -0.0433,-0.0433 -3.16225,-1.12628 -2.81571,1.12628 -2.90234,1.73274 -2.85902,2.29588 -0.0433,0.0433 h -0.56314 -0.0433 l -0.2166,0.25991 -3.20557,2.03597 -0.0866,0.0433 v -0.0866 l -0.56314,-2.90235 -1.68943,-2.8157 h -3.16225 l -2.90234,-0.86637 v -0.0433 l -2.90234,-1.99265 -3.16226,-2.035977 -2.90234,-2.599112 -2.85902,-2.599112 h -0.25991 l -2.25257,0.866371 -2.3392,2.859023 v 0.04325 l -2.85902,2.859027 -0.0433,0.0433 h -5.71804 l -1.16961,2.8157 -1.73274,3.20557 h -0.0433 l -2.85902,0.90969 -2.55579,2.77239 v 0.0433 l 0.25991,1.12628 0.0433,0.0432 -0.0433,0.0433 -2.90234,2.29588 -2.85903,1.42951 h -0.0432 l -2.85903,1.73274 -2.85902,1.99266 -0.0433,0.0433 -1.68942,3.16225 -1.47283,1.1696 -0.86637,0.86637 -0.86637,0.56314 h -0.0433 l -2.90235,-1.42951 -2.29588,-2.03597 -2.85902,-0.56314 h -0.0433 l -0.0433,-0.0433 -1.12628,-1.99265 -0.0433,-0.0433 0.0433,-0.0433 1.99265,-2.85903 0.86637,-2.90234 0.30323,-0.86637 1.42951,-2.90234 1.1696,-2.85902 v -0.0433 l 2.59912,-3.16226 2.59911,-2.859021 -0.86637,-2.859023 v -0.04325 l 0.86637,-2.815704 v -0.04325 l -1.42951,-3.118935 -0.0433,-0.04325 0.30323,-2.859023 -2.85903,-1.689423 v -0.04325 l -1.1696,-2.902341 v -0.04325 l 2.03597,-2.902341 2.85903,-2.035971 2.29588,-2.815705 -0.25991,-2.902341 0.86637,-3.162253 v -2.902342 l 0.86637,-2.902341 1.73274,-2.859023 0.25991,-2.902342 -2.85902,-2.555793 v -0.04325 -2.859023 -0.04325 l -0.60646,-2.859023 -0.25991,-2.902341 -1.42951,-1.949334 -0.0433,-0.04325 v -0.04325 l 0.60646,-3.162253 v -0.04325 l 2.85902,-2.252563 -1.08296,-2.815705 -2.85903,0.563141 h -3.20557 -0.0433 v -0.04325 -0.30323 l -3.11893,-1.646104 h -2.85902 l -2.85903,1.429511 -2.59911,2.859023 v 0.04325 h -0.0433 -2.90234 v -0.04325 l -2.85902,-1.386193 -3.16226,2.252564 v 0.04325 h -0.0432 -0.25992 -0.0433 v -0.04325 l -2.85902,-1.429512 h -0.0433 v -0.04325 l -1.1696,-2.859023 -1.73274,-2.902341 -0.86637,-2.902342 v -0.04325 l 1.1696,-2.599112 2.59911,-3.162253 0.56314,-2.295882 1.1696,-2.902342 0.25991,-0.86637 0.60646,-2.859023 0.56315,-2.859023 v -0.04325 l -0.2166,-0.216592 h -0.0433 l -1.94933,0.86637 h -0.0433 -0.0433 l -2.85902,-2.3392 h -0.0432 v -0.04325 -0.519822 -0.04325 L 119.08299,7.1921308 117.61016,4.029878 h 0.0433 l -1.1696,-1.4295115 -3.07562,0.3032297 h -0.0433 l -1.38619,3.1189343 v 0.043249 l -0.47651,0.7797336 0.0433,0.3032297 h -0.17327 v -0.086637 l -1.12628,1.8626969 -0.0433,0.043249 h -0.0433 L 107.2571,7.7984516 h -0.0433 V 7.7552024 7.4519727 l -0.25991,-3.1189342 h -0.2166 -0.0433 l -0.0432,-0.043249 -0.25992,-0.5198223 -2.85902,-1.7327413 h -0.0433 v -0.04325 L 101.75592,0.00132395 Z M 103.52948,435.30793 l -0.99632,0.34655 1.03964,2.98897 h 0.0433 l 3.07562,0.34655 -0.34655,-2.8157 -2.77239,-0.86637 z m 2.81571,8.14388 -2.77239,0.51982 h -0.0433 -2.77238 v 2.81571 0.0433 l 2.8157,3.03229 0.77974,-0.4765 1.47283,-2.90234 0.51982,-3.0323 z m -71.952081,19.06016 v 2.68574 l 2.988979,-1.38619 -0.216593,-1.03964 h -0.04325 l -2.729068,-0.25991 z m 2.295882,36.69079 -0.563141,0.99633 v 0.0433 l -0.259911,3.16225 v 2.85902 0.0432 l -0.86637,3.16225 v 0.0433 l 0.86637,2.77239 v 0.0432 l 1.949334,2.72907 2.512475,-2.98898 0.259911,-2.94566 0.60646,-2.81571 v -0.0433 l -1.212919,-3.16225 -2.252564,-2.85902 -1.039645,-1.03965 z m 9.226847,3.16225 0.259912,2.16593 0.86637,2.81571 v 0.0432 l 1.386193,2.94566 0.216593,-2.94566 v -2.8157 l -2.729068,-2.20925 z m 22.655592,17.58733 -2.64243,0.4765 2.685749,2.25257 h 0.04325 0.173274 l -0.259911,-2.72907 z m -3.292208,2.42584 0.563141,2.64243 v 0.0432 l 2.382519,2.55579 -0.779734,-2.51248 -2.165926,-2.72906 z m 24.994792,35.65115 -0.519822,0.25991 -0.04325,0.0433 -1.082963,2.77238 v 0.0432 l 0.259911,3.11894 2.729067,-0.34655 -0.519822,-2.77239 v -0.0432 l -0.823052,-3.07561 z"
         id="path1393" />
    </clipPath>
  </defs>
  <sodipodi:namedview
     id="base"
     pagecolor="#ffffff"
     bordercolor="#666666"
     borderopacity="1.0"
     inkscape:pageopacity="0.0"
     inkscape:pageshadow="2"
     inkscape:zoom="0.65745247"
     inkscape:cx="79.853681"
     inkscape:cy="346.03262"
     inkscape:document-units="px"
     inkscape:current-layer="svg3920"
     inkscape:window-width="1366"
     inkscape:window-height="697"
     inkscape:window-x="-8"
     inkscape:window-y="-8"
     showguides="true"
     inkscape:guide-bbox="true"
     showgrid="false"
     inkscape:window-maximized="1"
     inkscape:pagecheckerboard="0">
    <inkscape:grid
       type="xygrid"
       id="grid4244"
       empspacing="5"
       visible="true"
       enabled="true"
       snapvisiblegridlinesonly="true"
       originx="-526.71299"
       originy="-378.07662" />
  </sodipodi:namedview>
  <metadata
     id="metadata3925">
    <rdf:RDF>
      <cc:Work
         rdf:about="">
        <dc:format>image/svg+xml</dc:format>
        <dc:type
           rdf:resource="http://purl.org/dc/dcmitype/StillImage" />
      </cc:Work>
    </rdf:RDF>
  </metadata>
  <g
     id="g1291"
     clip-path="url(#clipPath1391)"
     transform="translate(0.47968542,0.53935415)">
    <rect
       fill="#a51931"
       width="900"
       height="600"
       id="rect4011"
       x="-405.89035"
       y="0" />
    <rect
       fill="#f4f5f8"
       y="100"
       width="900"
       height="400"
       id="rect4013"
       x="-405.89035" />
    <rect
       fill="#2d2a4a"
       y="200"
       width="900"
       height="200"
       id="rect4015"
       x="-405.89035" />
  </g>
  <path
     style="display:inline;fill:none;fill-opacity:1;stroke:#a51931;stroke-width:1;stroke-opacity:1"
     d="M 102.23312,0.53936121 99.460724,1.4057318 h -0.04325 l -1.082963,1.1262819 -0.04325,0.043249 -1.689422,2.8590231 -0.04325,0.043249 h -0.04325 -3.162252 V 5.434286 l -2.859022,0.9096891 h -0.04325 L 88.718075,6.0407454 85.859052,5.1743748 h -0.04325 l -2.988979,-0.5198224 1.646104,3.0322972 1.732741,2.8590224 v 0.04325 0.04325 l -1.1696,2.859023 v 0.04325 l -2.295882,1.732741 h -0.04325 l -2.902342,0.563141 -3.162253,0.866371 h -0.04325 l -2.85902,-1.992654 h -0.04325 l -3.075616,-0.30323 h -0.04325 l -0.563141,0.30323 -2.815704,1.949333 -0.866371,2.902342 -0.30323,0.866371 -0.30323,3.162252 0.30323,2.859024 v 0.04325 l -0.04325,0.04325 -3.162253,2.295882 -1.126282,1.1696 -0.04325,0.04325 -0.08664,-0.04325 -2.815704,-2.295882 -2.859024,1.992653 h -0.04325 -2.815704 -0.04325 l -3.162252,2.035971 -2.859023,1.429511 h -0.04325 -0.04325 l -2.859023,-0.86637 h -5.154905 -0.04325 l -2.859023,0.86637 h -0.04325 l -2.902331,-2.599114 -3.118934,-1.732741 h -0.04325 -2.772386 l -0.563141,2.815705 v 0.04325 2.859023 0.04325 h -0.04325 l -3.162253,1.732741 -0.04325,0.04325 -3.118934,1.082963 -0.04325,0.04325 -0.259911,0.519822 0.303229,2.859024 v 0.04325 0.04325 l -2.295882,2.815705 v 2.902341 l -0.86637,3.118934 v 0.04325 l 1.992652,2.859023 v 0.04325 2.295882 0.04325 l -1.126282,2.859023 v 0.04325 h -0.04325 l -2.599112,2.902341 -2.512475,2.815705 2.512475,2.859023 h 0.04325 l 0.563141,3.205571 0.30323,2.859023 v 0.04325 l 0.563141,3.162253 v 0.04325 l -1.429512,3.162253 -0.04325,0.04325 h -0.04325 l -2.859023,0.30323 v -0.04325 l -2.8590229,1.47283 -3.1622528,1.732741 H 6.2409781 L 3.3386365,82.236863 H 3.2953873 L 0.47968275,79.37784 1.1294607,81.587085 h -0.043249 l 1.47283,2.859024 1.1262819,3.205571 1.4295115,2.815704 2.8157045,-1.126281 h 0.043249 l 2.9023416,0.86637 h 0.04325 v 0.04325 l -0.563141,2.902342 1.992653,2.815705 v 0.04325 l 1.1696,3.162253 1.126282,2.902337 h 0.04325 v 2.90234 l -0.04325,0.0433 -1.689423,3.11893 0.563141,1.68943 v 0.0433 l 1.992652,2.29588 1.169601,2.85902 v 0.0433 l 2.555793,3.11893 0.04325,0.0433 3.162253,2.29589 0.563141,0.86637 3.162253,2.29588 h 0.04325 v 0.0433 l 1.126282,3.11893 v 0.0433 l 2.599112,2.85902 2.035971,2.85903 2.859023,2.3392 2.035971,2.90234 1.126281,2.85902 0.04325,0.0433 2.555793,1.12628 3.205571,2.29589 v 0.0432 l 1.429512,3.16226 0.30323,2.90234 v 0.0433 l -0.866371,2.85902 0.866371,3.16225 0.86637,2.25257 v 0.0433 l 2.294358,2.8611 v 0.0433 l 1.1696,3.16225 1.1696,2.85902 v 0.0433 l 0.866371,2.81571 v 0.0433 l 2.815704,1.12628 2.815705,-2.59911 1.732741,-3.16226 0.04325,-0.0866 0.04325,0.0866 0.04325,0.0866 2.295882,2.81571 v 0.0433 l -0.563141,2.85902 v 0.0433 3.16225 0.0433 l -1.732741,2.85902 h -0.04325 l -2.295883,3.20557 v 0.0433 l -0.08664,-0.0433 -2.815704,-1.1696 h -0.04325 l -3.118935,2.59912 v 0.0432 h -0.04325 l -2.772386,0.25992 0.519823,1.34287 v 0.0432 l 0.303229,2.85902 0.30323,3.20557 -0.866371,2.90235 -0.86637,2.85902 v 0.0433 l 0.259911,2.85902 v 4.02862 l 0.606459,3.16226 0.259912,2.90234 -0.866371,2.8157 v 0.0866 0.0866 l -0.08664,-0.0433 -2.859023,-1.68942 -2.815705,1.99265 -0.259911,2.8157 -0.04325,0.0866 -0.08664,-0.0433 -0.04325,-0.0433 -2.252564,-0.77973 -3.118934,1.42951 -2.859023,0.86637 h -0.04325 l -0.216592,0.51982 v 2.85902 l 0.563141,3.16226 v 0.0433 3.11893 0.0433 l 1.126281,1.99265 h 0.04325 l 0.259911,3.16226 v 0.0432 l 1.1696,2.85903 1.732741,2.85902 2.859024,2.90234 2.902341,2.85903 3.465483,5.80468 1.429511,3.16225 3.162253,2.59911 2.902342,2.29589 2.859023,2.59911 2.859023,2.29588 h 0.04325 l 3.162253,1.42951 v 0.0433 h 0.04325 l 1.126282,3.16225 v 0.0433 l 1.429511,2.85903 3.162253,2.29588 h 0.04325 v 0.0433 2.85902 0.0433 l 1.992653,3.11893 v 0.0433 4.59177 0.0433 l 0.606459,3.11893 v 0.0433 l 0.866371,2.85902 0.259911,2.90234 v 0.0433 l -0.866371,3.11894 0.30323,1.47283 v 2.85902 0.0433 0.0433 l -2.599112,2.55579 v 0.0433 l -0.86637,2.77239 v 0.0433 l 2.295882,2.85902 v 0.0433 l 0.303229,2.85902 0.563141,3.16226 1.732742,2.85902 2.035971,2.90234 2.555793,2.85902 0.04325,0.0432 3.162253,2.29588 v 0.0433 l -0.259911,3.16226 0.563141,5.76136 1.126281,2.85902 v 0.0433 l 0.60646,2.85903 v 0.0433 l 0.259911,3.11893 2.815705,-0.30323 h 0.129886 l -0.04325,0.0866 -0.866371,2.8157 v 0.0433 l 1.732741,2.85902 v 0.0433 l -0.303229,2.85903 1.47283,2.85902 0.86637,3.20557 v 0.0433 l -1.47283,2.90234 -2.599112,2.90234 h -0.04325 l -2.815704,0.86637 v 2.81571 0.0433 l -2.339201,3.16225 h 0.04325 l -0.606459,3.16225 v 0.0433 l -2.599112,2.85903 -0.866371,2.29588 -1.429511,2.90234 -2.035971,2.90234 -2.902342,2.90234 -1.429511,1.12628 v 0.0433 l -3.162253,1.3862 v 0.0433 l -0.259911,2.8157 v 0.0433 h -0.04325 l -1.992652,2.90234 h -0.04325 l -2.859023,1.73274 -2.295883,1.42951 -1.992652,3.11894 0.563141,2.90234 0.866371,2.85902 v 0.0433 0.0433 l -0.60646,0.86637 -1.732741,2.85902 h 0.04325 l -0.866371,3.16226 h -0.04325 v 0.0433 0.0433 l -0.259911,1.6461 -0.606459,2.85902 v 0.0433 l -1.126282,3.20557 -1.47283,2.85903 -1.732742,3.16225 v 0.0433 0.21659 0.0433 l -1.386193,2.85902 -2.3392,2.90235 v 0.0432 l -0.259911,3.07562 0.259911,2.94566 v 0.0433 l -1.949334,3.07562 1.689423,2.90234 0.04325,0.0866 h -0.08664 l -2.902342,1.94934 -0.259911,2.85902 v 0.0433 l -1.47283,3.16225 v 0.0433 0.56314 0.0433 l -1.386193,2.85903 -1.212919,2.8157 1.47283,3.16225 v 0.0433 l 1.126282,2.85902 v 0.0433 l -2.859023,2.85903 -2.252564,5.80468 -1.47283,3.16225 v 0.0433 l 0.866371,2.81571 v 0.0433 l -1.47283,3.16225 v 0.0433 2.8157 l 0.86637,2.85903 0.866371,2.94566 0.866371,3.11893 0.86637,2.94566 2.772386,2.20925 h 0.04325 l 2.859024,-0.51983 0.86637,-2.85902 v -0.0433 l -1.47283,-2.8157 -0.04325,-0.0866 h 0.08664 0.08664 l 2.772386,-0.86637 3.205571,-1.12628 2.815705,-0.34655 h 0.04325 l 0.216593,-0.0433 -0.129887,0.12989 -0.04325,0.0432 -0.823052,0.77974 v 0.0432 l 0.866371,2.85902 v 0.0433 l 2.902341,1.08296 h 0.04325 v 0.0433 l 0.86637,2.85903 v 2.94566 l 0.866371,2.8157 v 0.0433 l 2.772386,1.08296 h 0.04325 l 2.815705,-1.99265 0.04325,-0.0433 0.04325,0.0433 1.732741,1.99265 1.992653,2.94566 1.732741,3.11894 v 0.0432 0.0433 l -1.126282,2.90234 v 0.0433 l 0.259911,2.77238 h 3.118935 l 2.859023,-0.25991 h 0.04325 l 2.94566,1.99265 h 0.04325 l 1.126282,2.3392 v 0.0433 l 0.866371,2.81571 v 0.0432 l 1.47283,3.16225 v 0.0432 l -0.346549,2.85902 2.859023,2.5558 h 0.04325 2.772386 0.04325 l 1.082963,-2.77239 v -0.0432 l 0.04325,-0.0866 0.04325,0.0432 0.346548,0.25991 h 0.04325 v 0.0433 l 0.823052,2.94566 2.165927,-2.94566 h 0.04325 l 0.08664,0.0432 -1.126282,3.11894 -1.082963,2.90234 2.209245,2.8157 2.772386,1.47283 h 0.04325 l 1.992653,-0.60646 h 0.04325 l 0.129886,-0.0432 -0.04325,0.12989 -0.04325,0.0433 -1.169601,2.55579 -0.86637,2.81571 v 0.0433 l 0.346548,2.85902 v 0.0432 l 1.992653,2.8157 3.162252,2.59912 2.859023,2.3392 h 0.04325 l 2.859027,2.85902 1.47283,3.20557 0.60646,0.86637 3.07562,1.73274 h 0.0433 v 0.0432 l 1.12628,2.64243 1.6461,-2.68575 v -0.0432 l 0.86637,-2.8157 v -0.0433 l -0.30323,-3.11893 v -0.0432 l 0.60646,-2.29589 v -0.0866 l 0.0866,0.0432 2.85902,0.56314 h 0.0433 l 1.73274,1.73274 v 0.0433 l 0.86637,2.85902 v 0.0432 l 1.42952,1.38619 1.38619,0.56314 h 0.0433 l 3.16225,0.30323 2.90234,1.73274 2.85902,1.16961 2.85903,-1.16961 h 0.0433 l 2.90234,1.16961 1.73274,2.90234 h 0.0432 v 0.0432 l 0.56314,3.16225 3.11893,2.25256 2.81571,-1.42951 0.0433,-0.0433 0.0433,0.0433 2.85902,0.86637 h 0.0433 v 0.0432 l 0.86637,2.85902 0.86637,3.20557 -0.25991,3.16226 -0.30323,2.90234 v 0.0433 h -0.0433 l -2.85902,2.59911 -1.42951,2.85902 v 1.08297 0.0432 l 0.82305,1.38619 0.0433,0.0432 3.11893,1.42951 h 0.0433 l 2.81571,2.55579 2.8157,-2.25256 0.86637,-2.90234 h 0.0433 v -0.0433 l 3.16225,-1.42951 h 0.0433 l 2.85902,-2.29589 h 0.0433 l 2.85903,-0.30322 0.56314,-0.25992 2.90234,-1.47283 h 0.0433 l 3.16225,2.3392 h 0.0433 l 0.86637,2.90235 0.51982,0.82305 3.16226,-0.30323 2.85902,-0.56314 1.99265,-1.99265 1.42951,-2.85903 0.86637,-2.90234 1.1696,-1.47283 2.85903,-2.29588 1.1696,-3.11894 v -3.11893 l -2.85902,-2.07929 -2.94567,-2.59911 -3.07561,-2.81571 -0.0433,-0.0432 -2.90234,-1.68942 -0.0433,-0.0432 -2.25076,-2.85424 -0.60646,-1.21292 -1.73274,-2.85902 -1.99266,-3.20557 -0.86637,-1.73274 -1.68942,-2.81571 -0.0433,-0.0433 -2.8157,-1.42951 -3.20557,-0.51982 v -0.0433 l -2.81571,-1.73274 h -0.0433 l -2.03597,1.73274 v 0.0433 l -3.11893,1.12628 -3.20557,0.25991 h -0.0433 -1.99266 l -2.85902,-0.25991 v -0.0432 l -3.20557,-1.99265 -2.85902,-1.73274 v 0.0433 l -2.94566,-0.86637 h -0.0433 v -0.0432 l -2.25257,-2.94566 -2.07929,-3.11894 -2.20924,-2.77238 -2.25256,2.77238 -0.0433,0.0433 h -0.0433 l -2.85903,-0.60646 -0.0433,-0.0432 -2.59911,-2.85902 -0.86637,-3.20557 v -0.0433 -0.21659 l -2.8157,-1.42951 -0.0433,-0.0432 -2.33976,-2.8593 -1.73274,-3.20557 -1.47283,-2.85903 v -0.0433 l -0.51982,-3.20557 v -2.85902 -0.0432 l 1.99265,-1.99265 h 0.0433 l 3.20557,-0.60646 0.0433,-0.0433 0.0433,0.0866 1.12628,2.85902 0.60646,2.94566 v 0.0433 l -2.03597,2.77238 h 2.81571 0.0433 0.0432 l 2.51248,2.85903 v 0.0433 3.20557 l 0.60646,2.85902 v 2.85902 l 2.8157,1.42952 2.72907,1.60278 -1.60279,-2.98898 -1.73274,-2.85902 -1.21292,-2.85902 -1.12628,-3.20557 v -0.0433 l -1.12628,-5.71805 -0.60646,-3.20557 -0.60646,-3.20557 -0.51982,-2.85903 -0.60646,-2.29588 -0.86637,-3.11893 v -0.0433 l -0.51982,-2.94566 -0.60646,-3.11894 -0.25991,-2.94566 -0.60646,-3.11893 -1.12628,-3.16225 -1.3862,-2.68575 -0.56314,2.64243 v 0.0433 l -0.51982,0.60646 -0.0433,0.0433 h -0.0433 l -2.94566,-1.73274 -0.0433,-0.0433 -1.38619,-2.94566 -2.3392,-2.59912 -1.73274,-2.85902 v -0.0433 l -0.25991,-2.85902 -0.60646,-2.94566 -0.25992,-2.85902 -0.34654,-3.20558 0.34654,-2.85902 -0.34654,-2.85902 -1.732751,-3.16225 v -0.0433 l -0.259911,-2.85903 -2.295882,-3.11893 h -1.386193 l -3.205571,-0.25991 -2.815705,1.94933 v 0.0433 h -0.04325 l -2.815705,-0.25991 -2.555793,2.8157 -0.04325,0.0433 -2.94566,0.34655 -1.126282,0.25991 h -0.04325 l -2.859023,-1.47283 v -0.0433 h -0.04325 l -3.205571,-2.85902 -0.04325,-0.0433 0.04325,-0.0433 2.339201,-2.8157 -0.60646,-3.20557 -1.472968,-2.81606 -0.866371,-2.94566 -1.386193,-3.11893 -0.866371,-2.94566 v -0.0433 l -0.346548,-1.73274 0.866371,-3.11893 -0.259911,-2.94566 v -2.25257 l -0.259912,-3.20557 0.866371,-2.85902 v -0.0433 l 2.815704,-2.5558 -2.815704,-2.55579 -0.866371,-3.20557 -0.04325,-0.0866 h 0.08664 2.815705 l 1.47283,-2.8157 -0.346549,-2.94566 v -0.0433 l 1.472831,-3.11893 1.47283,-2.94567 2.599111,-2.85902 1.386193,-2.85902 1.472831,-3.16225 1.126281,-2.85903 0.346549,-1.73274 -0.346549,-3.20557 0.346549,-2.85902 v -0.0433 h 0.04325 l 2.815704,-1.42951 -0.606459,-2.85903 0.346548,-3.20557 v -0.0433 l 1.732741,-2.8157 0.779734,-2.85902 0.866371,-2.94566 v -0.0433 l 1.732741,-3.11894 1.732741,-2.94566 2.339201,-2.8157 v -0.0433 l 1.126282,-3.16225 v -2.85903 -0.0433 l 1.732741,-2.85902 2.945662,-2.90234 v -0.0433 l 1.12629,-3.07562 v -0.0433 l 0.86637,-0.82305 v -3.20557 l -0.25991,-2.85902 v -0.0433 l 0.25991,-0.30323 v -2.81571 -0.0433 l -1.12629,-3.07561 v -0.0433 -2.94566 l -0.60645,-2.85902 v -0.60646 l 0.25991,-3.11894 0.86637,-3.20557 v -0.0433 l 0.60646,-1.08296 1.12628,-2.94566 0.60646,-2.85902 v -0.0433 l 2.29588,-3.16226 -1.1696,-2.8157 -1.99265,-2.85902 -0.86637,-1.21292 -1.73274,-3.11894 -0.0433,-0.0432 0.0433,-0.0433 1.73274,-1.47283 0.60646,-1.42951 v -0.0433 l 2.85902,-2.59911 h 0.0433 l 2.85902,-0.86637 2.90234,-1.12628 1.3862,-1.47283 0.0433,-0.0433 0.0432,0.0433 2.90235,1.21292 h 0.0433 l 1.94933,-0.34655 h 2.59911 l 2.81571,-0.51982 1.73274,-3.16225 0.25991,-0.82306 v -0.0433 l 0.0433,-0.21659 0.0866,0.21659 v 0.0433 l 1.1696,2.77239 0.0433,0.0433 2.81571,1.1696 2.85902,0.51982 2.07929,0.34655 0.86637,0.25991 2.81571,0.60646 h 0.0433 l 3.11893,-1.21292 h 0.0433 l 0.17327,-0.0866 -0.0866,0.17328 -0.0433,0.0433 -0.56314,1.12628 v 0.0433 l 0.25991,2.8157 v 0.0433 l -2.59912,2.81571 v 0.0433 l 0.60646,3.16225 -0.25991,2.85902 v 0.0433 l -0.60646,0.86637 -0.86637,2.85902 v 0.0433 l 1.73274,2.81571 v 0.0433 0.0433 l -2.3392,2.8157 v 0.0433 l 1.21292,2.90234 0.25991,3.11894 v 0.0433 l -2.8157,2.90234 2.77239,1.94933 2.55579,0.86637 h 0.0433 l 2.8157,-0.86637 2.85903,-0.25991 h 0.0432 l 3.20558,0.25991 1.47283,0.25991 3.11893,0.86637 2.90234,1.21292 h 0.0433 l 2.81571,-1.21292 h 2.85902 l 3.16225,-0.51982 h 0.0433 l 2.81571,-2.07929 h 0.0432 l 2.85903,-0.25991 h 0.0433 l 0.60646,0.25991 2.85902,2.3392 h 0.0433 l 1.47283,2.81571 2.25256,-1.34288 0.0433,-0.0433 0.0433,0.0433 1.73274,2.85902 1.64611,1.3862 h 0.0433 1.08296 0.0433 0.0433 l 1.73274,2.94566 2.8157,2.85902 h 0.0433 l 2.81571,2.25256 -0.34655,-2.72906 -0.0433,-0.12989 0.12989,0.0866 0.0432,0.0433 2.85903,1.55946 1.08296,-1.34287 0.0433,0.0433 0.0866,0.0433 -1.99266,2.85902 -1.1696,3.11894 2.85903,0.86637 1.73274,0.86637 2.85902,0.25991 h 0.0433 l 2.77239,2.77238 0.82305,-2.72906 -0.25991,-1.73274 -0.0433,-0.0866 0.12988,0.0433 3.11894,0.86637 h 0.0433 l 1.73274,3.20557 2.90234,2.59911 h 0.0433 v 0.0433 l 0.51982,1.38619 v 2.90235 0.0432 l 2.07929,3.07562 2.25257,2.94566 0.34654,0.51982 v 0.0433 l 0.86637,2.94566 0.12989,1.12628 v -1.68942 -0.0433 l -0.86637,-2.85902 -2.03597,-2.85902 v -0.0433 l -1.12628,-3.16226 -1.1696,-2.85902 v -0.0433 -1.68942 -0.0433 l -1.73274,-2.85902 -0.86637,-2.90235 v -0.0432 l 0.56314,-3.16226 0.30323,-2.85902 v -0.0433 l 1.73274,-2.90234 0.25991,-0.25991 -2.25257,-2.81571 -0.0432,-0.0433 v -0.30323 l -2.85903,-3.11893 -2.85902,-2.59911 -2.90234,-1.12628 -0.0433,-0.0433 v -0.0433 -2.85903 -0.0432 h 0.0433 l 0.25991,-0.56315 v -2.85902 l -0.56314,-2.90234 -0.60646,-2.85902 -0.56141,-3.16302 v -0.0433 l -0.56314,-1.12628 -2.29588,-2.85902 v -0.0433 l -0.86637,-3.16225 -1.1696,-2.90235 v -2.90234 l 0.30323,-0.86637 -0.30323,-2.85902 -0.30323,-3.20557 v -0.0433 h 0.0433 l 2.90234,-1.1696 h 2.90234 l 2.8157,-0.56314 -0.30323,-2.81571 v -0.0433 l 0.30323,-0.86637 0.0433,-0.0433 2.85903,-1.73274 2.85902,-1.38619 v -0.0433 h 0.0433 l 0.82305,-2.25256 v -0.0433 l 1.16981,-1.68991 0.86637,-2.90234 v -0.0433 l 2.90234,-2.85902 1.68942,-1.42952 v -0.56314 -0.0433 l 1.1696,-2.85902 0.30323,-1.99265 v -0.0433 l 2.90235,-2.3392 0.86637,-0.30323 v 0.0433 l 2.85902,-2.59911 h 0.0433 v -0.0433 l 2.85909,-1.42972 h 0.0433 0.25991 0.0433 l 2.25256,-0.30323 h 0.0433 l 2.85903,-0.86637 h 0.0433 2.85902 l 1.68942,-1.12628 h 0.0433 l 2.85902,-0.30323 h 0.0433 l 2.85903,-1.16961 2.85902,-0.86637 h 0.0433 l 1.42951,0.30323 h 0.0433 l 3.11893,2.29589 h 2.90234 0.0433 v 0.0433 l 2.85903,1.73274 2.85902,-1.47283 h 0.0433 l 1.99265,0.86637 2.85902,-1.1696 2.81571,-0.56314 v -0.2166 -0.0433 l 0.0866,-0.0433 3.16225,-0.25991 h 0.0433 l 2.85902,1.12629 2.90234,0.30323 1.42951,0.30322 2.85903,-0.30322 2.85902,-1.12629 1.42951,-0.86637 0.0433,-0.0433 2.90234,-0.56314 h 2.85903 0.0433 l 2.85902,0.86637 2.3392,0.56314 2.29588,0.30323 0.86637,0.30323 h 0.0433 v 0.0433 3.16226 0.0432 l 1.73274,2.81571 2.81571,0.25991 1.68942,-2.85902 1.99265,-1.94934 0.0433,-0.0433 v -0.0432 l 1.73274,-0.56315 2.90234,-1.42951 v -0.0433 l 2.85903,-0.86637 v 0.0433 l 3.16225,-2.90234 1.99265,-2.8157 v -0.0433 l -0.56314,-5.71805 v -0.0433 -3.16225 -0.0433 l 1.1696,-2.85902 0.56314,-2.85903 v -0.0433 l 1.1696,-2.8157 v -0.0433 l -1.73274,-2.8157 -3.16225,-2.59912 -0.0432,-0.0433 v -0.0432 l 0.30323,-1.99266 v -0.0433 l 2.90234,-3.16225 1.42951,-2.85902 v -0.12989 l -0.17327,0.17328 -0.0433,0.0433 -2.90234,0.25991 h -0.0866 l 0.0433,-0.0866 0.56314,-2.85902 v -0.0433 h 0.0433 l 3.11893,-1.68943 v -2.90234 l 1.1696,-2.85902 0.25992,-2.85902 v -0.0433 l -1.3862,-3.11894 -0.0433,-0.0432 -2.8157,-1.08296 h -0.0433 l -1.68942,-0.30323 h -0.0433 l -3.16142,-1.43041 v -0.0433 h -0.0433 l -1.42958,-3.16232 v -0.0433 l -0.56314,-2.90234 v -0.0433 l 3.11893,-2.25257 -3.07562,-1.08296 -2.90234,-0.56314 -2.85902,-0.30323 h -0.0433 l -3.16225,-1.47283 -2.90234,-1.42951 v -0.0433 l -1.1696,-3.16225 -0.86644,-2.90255 -0.82306,-0.82306 -3.46548,-2.90234 h -0.0433 l -1.99265,-4.02862 -3.46548,-3.16225 v -0.0433 -0.0433 -2.85903 -0.0432 l 0.86637,-3.98531 v -0.0433 l -0.60646,-3.16225 0.30323,-3.72539 -0.86637,-2.90235 v -1.1696 l 0.30323,-2.90234 1.99265,-4.33185 0.30323,-1.99265 0.30323,-3.7254 v -0.0433 l -0.30323,-2.85902 -1.42951,-2.85902 -1.99265,-2.85903 h -0.0433 l -2.25257,-2.03597 -2.90234,-1.42951 -2.90234,-1.73274 -3.16225,-2.29588 v -0.0433 h -0.0433 l -1.73274,-3.16225 h 0.0433 l -2.29589,-2.85903 -0.0433,-0.0433 -2.85902,-2.29588 h -0.0433 l -0.86637,-2.59911 h 0.0433 l -1.73274,-2.85902 v -0.0433 l -1.73274,-1.73274 -0.60646,-0.866369 -1.73274,-2.859023 v -0.04325 l -1.12629,-2.859023 -1.99265,-2.859023 -0.0433,-0.04325 -2.8157,-1.646104 -2.85902,1.689422 h -0.0433 -0.0433 l -2.81571,-2.035971 h -0.0433 -3.11893 -0.0433 l -2.90234,-1.732741 -2.85902,-1.126282 -2.85903,-0.606459 v 0.04325 H 239.598 v -0.04325 l -2.85902,-0.563141 -2.85902,0.563141 -2.51248,2.859023 1.38619,2.815704 0.0433,0.08664 -0.0866,0.04325 -2.90235,0.86637 -1.94933,3.118935 v 0.04325 h -0.0433 l -2.55579,1.689423 -0.0433,0.04325 -0.82305,1.949334 v 0.04325 2.859024 0.0433 l -1.1696,1.73274 -0.0433,0.0433 -0.0433,-0.0433 -3.16225,-1.12628 -2.81571,1.12628 -2.90234,1.73274 -2.85902,2.29588 -0.0433,0.0433 h -0.56314 -0.0433 l -0.2166,0.25991 -3.20557,2.03597 -0.0866,0.0433 v -0.0866 l -0.56314,-2.90235 -1.68943,-2.8157 h -3.16225 l -2.90234,-0.86637 v -0.0433 l -2.90234,-1.99265 -3.16226,-2.035973 -2.90234,-2.599112 -2.85902,-2.599112 h -0.25991 l -2.25257,0.866371 -2.3392,2.859023 v 0.04325 l -2.85902,2.859023 -0.0433,0.0433 h -5.71804 l -1.16961,2.8157 -1.73274,3.20557 h -0.0433 l -2.85902,0.90969 -2.55579,2.77239 v 0.0433 l 0.25991,1.12628 0.0433,0.0432 -0.0433,0.0433 -2.90234,2.29588 -2.85903,1.42951 h -0.0432 l -2.85903,1.73274 -2.85902,1.99266 -0.0433,0.0433 -1.68942,3.16225 -1.47283,1.1696 -0.86637,0.86637 -0.86637,0.56314 h -0.0433 l -2.90235,-1.42951 -2.29588,-2.03597 -2.85902,-0.56314 h -0.0433 l -0.0433,-0.0433 -1.12628,-1.99265 -0.0433,-0.0433 0.0433,-0.0433 1.99265,-2.85903 0.86637,-2.90234 0.30323,-0.86637 1.42951,-2.90234 1.1696,-2.85902 v -0.0433 l 2.59912,-3.16226 2.59911,-2.85902 -0.86637,-2.85902 v -0.04325 l 0.86637,-2.815704 v -0.04325 l -1.42951,-3.118935 -0.0433,-0.04325 0.30323,-2.859023 -2.85903,-1.689423 v -0.04325 l -1.1696,-2.902341 v -0.04325 l 2.03597,-2.902341 2.85903,-2.035971 2.29588,-2.815705 -0.25991,-2.902341 0.86637,-3.162253 v -2.902342 l 0.86637,-2.902341 1.73274,-2.859023 0.25991,-2.902342 -2.85902,-2.555793 v -0.04325 -2.859023 -0.04325 l -0.60646,-2.859023 -0.25991,-2.902341 -1.42951,-1.949334 -0.0433,-0.04325 v -0.04325 l 0.60646,-3.162253 v -0.04325 l 2.85902,-2.252563 -1.08296,-2.815705 -2.85903,0.563141 h -3.20557 -0.0433 v -0.04325 -0.30323 l -3.11893,-1.646104 h -2.85902 l -2.85903,1.429511 -2.59911,2.859023 v 0.04325 h -0.0433 -2.90234 v -0.04325 l -2.85902,-1.386193 -3.16226,2.252564 v 0.04325 h -0.0432 -0.25992 -0.0433 v -0.04325 l -2.85902,-1.429512 h -0.0433 v -0.04325 l -1.1696,-2.859023 -1.73274,-2.902341 -0.86637,-2.902342 v -0.04325 l 1.1696,-2.599112 2.59911,-3.162253 0.56314,-2.295882 1.1696,-2.902342 0.25991,-0.86637 0.60646,-2.859023 0.56315,-2.859023 v -0.04325 l -0.2166,-0.216592 h -0.0433 l -1.94933,0.86637 h -0.0433 -0.0433 l -2.85902,-2.3392 h -0.0432 v -0.04325 -0.519822 -0.04325 l -1.99311,-2.85978 -1.47283,-3.1622528 h 0.0433 l -1.1696,-1.4295115 -3.07562,0.3032297 h -0.0433 l -1.38619,3.1189343 v 0.043249 l -0.47651,0.7797336 0.0433,0.3032297 h -0.17327 V 7.60146 l -1.12628,1.8626969 -0.0433,0.043249 h -0.0433 l -2.90229,-1.1696001 h -0.0433 V 8.2945566 7.9913269 l -0.25991,-3.1189342 h -0.2166 -0.0433 l -0.0432,-0.043249 -0.25992,-0.5198223 -2.85902,-1.7327413 h -0.0433 v -0.04325 l -1.73263,-1.992652 z m 1.77605,435.30791879 -0.99632,0.34655 1.03964,2.98897 h 0.0433 l 3.07562,0.34655 -0.34655,-2.8157 -2.77239,-0.86637 z m 2.81571,8.14388 -2.77239,0.51982 h -0.0433 -2.77238 v 2.81571 0.0433 l 2.8157,3.03229 0.77974,-0.4765 1.47283,-2.90234 0.51982,-3.0323 z m -71.952086,19.06016 v 2.68574 l 2.988979,-1.38619 -0.216593,-1.03964 h -0.04325 l -2.729068,-0.25991 z m 2.295882,36.69079 -0.563141,0.99633 v 0.0433 l -0.259911,3.16225 v 2.85902 0.0432 l -0.86637,3.16225 v 0.0433 l 0.86637,2.77239 v 0.0432 l 1.949334,2.72907 2.512475,-2.98898 0.259911,-2.94566 0.60646,-2.81571 v -0.0433 l -1.212919,-3.16225 -2.252564,-2.85902 -1.039645,-1.03965 z m 9.226847,3.16225 0.259912,2.16593 0.86637,2.81571 v 0.0432 l 1.386193,2.94566 0.216593,-2.94566 v -2.8157 l -2.729068,-2.20925 z m 22.655592,17.58733 -2.64243,0.4765 2.685749,2.25257 h 0.04325 0.173274 l -0.259911,-2.72907 z m -3.292208,2.42584 0.563141,2.64243 v 0.0432 l 2.382519,2.55579 -0.779734,-2.51248 -2.165926,-2.72906 z m 24.994792,35.65115 -0.519822,0.25991 -0.04325,0.0433 -1.082963,2.77238 v 0.0432 l 0.259911,3.11894 2.729067,-0.34655 -0.519822,-2.77239 v -0.0432 l -0.823052,-3.07561 z"
     id="path1101" />
</svg>
